<?xml version="1.0" standalone="no"?>
<!DOCTYPE svg PUBLIC "-//W3C//DTD SVG 20010904//EN" "http://www.w3.org/TR/2001/REC-SVG-20010904/DTD/svg10.dtd">
<svg version="1.0" xmlns="http://www.w3.org/2000/svg" viewBox="0 0 980.000000 988.000000" preserveAspectRatio="xMidYMid meet">
    <g transform="translate(0.000000,988.000000) scale(0.100000,-0.100000)"
    fill="#000000" stroke="none">
    <path d="M2160 9869 c-448 -4 -923 -12 -1055 -18 -218 -9 -247 -12 -320 -37
    -332 -111 -602 -383 -721 -725 -35 -102 -42 -225 -54 -1019 -19 -1267 -7
    -3910 19 -4353 8 -125 14 -165 37 -227 105 -292 303 -518 574 -655 126 -63
    231 -93 373 -106 164 -14 3987 -25 3987 -11 0 5 -9 53 -20 106 -61 298 -86
    673 -61 917 21 206 72 424 147 628 52 144 193 421 279 551 446 671 1159 1097
    1955 1169 340 31 763 -10 987 -96 14 -5 15 154 10 1388 -3 907 -9 1432 -16
    1503 -42 411 -357 794 -767 932 -67 22 -105 27 -268 35 -519 24 -3333 34
    -5086 18z m1260 -2104 c1018 -570 2413 -1361 2545 -1443 l48 -30 -84 -49
    c-275 -162 -2721 -1545 -2886 -1632 l-23 -12 0 1696 0 1697 33 -20 c17 -11
    183 -104 367 -207z"/>
    <path d="M7290 5711 c-298 -26 -716 -174 -975 -346 -154 -102 -363 -296 -525
    -485 -188 -221 -358 -547 -430 -823 -49 -191 -63 -357 -58 -697 5 -283 6 -299
    33 -400 53 -203 207 -552 321 -728 l47 -74 -811 -811 -812 -812 265 -265 265
    -265 813 812 812 813 100 -67 c259 -171 639 -304 984 -344 149 -17 454 -7 606
    20 461 81 868 293 1196 623 356 357 579 794 656 1281 21 138 24 478 5 612 -79
    549 -271 927 -668 1317 -245 242 -470 391 -758 503 -147 58 -351 110 -485 124
    -140 15 -464 21 -581 12z m553 -770 c468 -99 880 -434 1079 -876 117 -262 154
    -602 95 -886 -65 -309 -184 -534 -401 -757 -298 -306 -648 -455 -1071 -455
    -251 0 -431 41 -660 152 -423 205 -718 586 -821 1061 -29 129 -26 448 4 583
    91 412 319 739 675 971 181 119 415 203 637 230 91 11 368 -3 463 -23z"/>
    </g>
</svg>
